.  TD Sign UP is open until 1st of January. so you better hurry up ;) ENJOYYYYYYYYYYYYYYYYYYYYYYYYYYYYYYYYYYYYYYYYYYYY!!!!
  
http://www.torrentday.com


To Avoid Fakes, ALWAYS Check That The Torrent Was Added By: TvTeam.


               www . TorrentDay . Com 
(((((((((((((= Enjoy No RAR releases =))))))))))))))))))))

...................................NFO:....................................

.
                          (                *        )   (               
                          )\ )           (  `    ( /(   )\ )            
                        (()/(   (   (   )\))(   )\()) (()/(            
                          /(_))  )\  )\ ((_)()\ ((_)\   /(_))           
                        (_))_  ((_)((_)(_()((_)  ((_) (_))             
                          |   \ | __|(_)|  \/  | / _ \ / __|            
                          | |) || _| | || |\/| || (_) |\__ \            
                          |___/ |___||_||_|  |_| \___/ |___/                          
        
                              Proudly presents
   
          Todd.And.The.Book.Of.Pure.Evil.S02E07.WEBRip.XviD-DEiMOS        
                                                                          
      Release Date .....: 19/Jan/2012                                     
      DVD RLS Date .....: ??/???/20??                                     
      Season Number ....: 2                                               
      Episode Number ...: 7                                               
      Episode Title ....: See You Later, Masturbator                      
      Runtime ..........: 22:22                                           
      Language .........: English                                         
      URL ..............: http://www.tvrage.com/shows/id-26726            
      File Size ........: 175 MB                                          
                                                                          
      Summary   
                                                                          
      Jimmy is fired for peeping on students and Todd vows to clear his   
      name, but the Gang find the real culprit difficult to identify -    
      because he's invisible!                                             
                                                                          
     Tech Info  
                                                                          
      Video                                                               
      ID                               : 0                                
      Format                           : MPEG-4 Visual                    
      Format profile                   : Advanced Simple@L5               
      Format settings, BVOP            : No                               
      Format settings, QPel            : No                               
      Format settings, GMC             : No warppoints                    
      Format settings, Matrix          : Default (H.263)                  
      Codec ID                         : XVID                             
      Codec ID/Hint                    : XviD                             
      Duration                         : 22mn 22s                         
      Bit rate                         : 970 Kbps                         
      Width                            : 640 pixels                       
      Height                           : 352 pixels                       
      Display aspect ratio             : 16:9                             
      Frame rate                       : 29.970 fps                       
      Color space                      : YUV                              
      Chroma subsampling               : 4:2:0                            
      Bit depth                        : 8 bits                           
      Scan type                        : Progressive                      
      Compression mode                 : Lossy                            
      Bits/(Pixel*Frame)               : 0.144                            
      Stream size                      : 155 MiB (89%)                    
      Writing library                  : XviD 1.2.1 (UTC 2008-12-04)      
                                                                          
      Audio                                                               
      ID                               : 1                                
      Format                           : MPEG Audio                       
      Format version                   : Version 1                        
      Format profile                   : Layer 3                          
      Mode                             : Joint stereo                     
      Mode extension                   : MS Stereo                        
      Codec ID                         : 55                               
      Codec ID/Hint                    : MP3                              
      Duration                         : 22mn 22s                         
      Bit rate mode                    : Variable                         
      Bit rate                         : 108 Kbps                         
      Nominal bit rate                 : 128 Kbps                         
      Channel(s)                       : 2 channels                       
      Sampling rate                    : 44.1 KHz                         
      Compression mode                 : Lossy                            
      Stream size                      : 17.3 MiB (10%)                   
      Alignment                        : Aligned on interleaves           
      Interleave, duration             : 26 ms (0.78 video frame)         
      Interleave, preload duration     : 176 ms                           
      Writing library                  : LAME3.98r                        
                                                                          
     Group Info  
                                                                          
      Our mission is to provide the scene with decent quality rips of old 
      TV classics.                                                        
                                                                          
      Greets fly out to GERUDO, HILSWALTB, and everyone that helped us;   
      you know who you guys are!                                          
                                                                          
      Looking for decent affil sites (no OVH) and rippers/cappers.        
                                                                          
      Ask around for us.